<svg width="16" height="17" viewBox="0 0 16 17" fill="none" xmlns="http://www.w3.org/2000/svg">
<path d="M8.94611 1.82349L8.94611 13.262C8.94644 13.2958 8.95684 13.3288 8.97596 13.3565C8.99508 13.3842 9.02203 13.4055 9.05326 13.4174C9.08449 13.4293 9.11855 13.4314 9.15097 13.4233C9.18339 13.4153 9.21265 13.3975 9.23491 13.3723L14.2459 7.59856C14.4147 7.41704 14.6465 7.30906 14.8922 7.29736C15.138 7.28566 15.3787 7.37116 15.5635 7.53584C15.7484 7.70053 15.8629 7.93153 15.883 8.18016C15.9032 8.4288 15.8273 8.67565 15.6715 8.86868L9.18414 16.3431C9.03564 16.5138 8.85301 16.6505 8.64839 16.7441C8.44376 16.8378 8.22182 16.8862 7.99731 16.8862C7.7728 16.8862 7.55087 16.8378 7.34624 16.7441C7.14161 16.6505 6.95899 16.5138 6.81049 16.3431L0.324492 8.87002C0.170582 8.67683 0.096269 8.4308 0.117084 8.18336C0.137898 7.93592 0.252228 7.70621 0.436182 7.54223C0.620136 7.37825 0.859479 7.29269 1.10419 7.30344C1.34891 7.31419 1.58006 7.4204 1.74934 7.59989L6.76038 13.3736C6.78264 13.3988 6.8119 13.4166 6.84432 13.4247C6.87673 13.4327 6.91079 13.4307 6.94203 13.4187C6.97326 13.4068 7.0002 13.3856 7.01933 13.3578C7.03845 13.3301 7.04885 13.2972 7.04917 13.2633L7.04917 1.82349C7.05569 1.57266 7.15855 1.33433 7.33584 1.15927C7.51312 0.984198 7.75082 0.886231 7.9983 0.886231C8.24578 0.886231 8.48348 0.984198 8.66077 1.15927C8.83805 1.33433 8.94091 1.57266 8.94743 1.82349L8.94611 1.82349Z" fill="#E9E9EA"/>
</svg>
