<svg width="16" height="16" viewBox="0 0 16 16" fill="none" xmlns="http://www.w3.org/2000/svg">
<path d="M0.937258 6.94012H12.3758C12.4096 6.9398 12.4425 6.92939 12.4703 6.91027C12.498 6.89115 12.5192 6.8642 12.5312 6.83297C12.5431 6.80174 12.5452 6.76768 12.5371 6.73526C12.5291 6.70284 12.5113 6.67358 12.4861 6.65132L6.71233 1.64028C6.53081 1.47149 6.42283 1.23978 6.41113 0.993986C6.39943 0.748197 6.48493 0.507527 6.64961 0.322698C6.8143 0.137869 7.0453 0.0233178 7.29393 0.00318546C7.54257 -0.0169469 7.78942 0.0589124 7.98245 0.214776L15.4568 6.70209C15.6275 6.85059 15.7643 7.03322 15.8579 7.23784C15.9516 7.44247 16 7.66441 16 7.88892C16 8.11343 15.9516 8.33536 15.8579 8.53999C15.7643 8.74462 15.6275 8.92724 15.4568 9.07574L7.98379 15.5617C7.7906 15.7156 7.54457 15.79 7.29713 15.7691C7.04969 15.7483 6.81998 15.634 6.656 15.45C6.49202 15.2661 6.40646 15.0268 6.41721 14.782C6.42796 14.5373 6.53417 14.3062 6.71366 14.1369L12.4874 9.12585C12.5126 9.10359 12.5304 9.07433 12.5385 9.04191C12.5465 9.0095 12.5444 8.97544 12.5325 8.94421C12.5206 8.91297 12.4993 8.88603 12.4716 8.86691C12.4439 8.84778 12.4109 8.83738 12.3771 8.83706H0.937258C0.686435 8.83054 0.448104 8.72768 0.273036 8.55039C0.0979681 8.37311 9.53674e-07 8.13541 9.53674e-07 7.88793C9.53674e-07 7.64045 0.0979681 7.40275 0.273036 7.22546C0.448104 7.04818 0.686435 6.94532 0.937258 6.9388V6.94012Z" fill="#E9E9EA"/>
</svg>
