<svg width="24" height="24" viewBox="0 0 24 24" fill="none" xmlns="http://www.w3.org/2000/svg">
<path fill-rule="evenodd" clip-rule="evenodd" d="M17.3333 0H6.66667C2.98477 0 0 2.98477 0 6.66667V17.3333C0 21.0152 2.98477 24 6.66667 24H17.3333C21.0152 24 24 21.0152 24 17.3333V6.66667C24 2.98477 21.0152 0 17.3333 0ZM21.6666 17.335C21.6593 19.7252 19.7235 21.661 17.3333 21.6683H6.66659C4.27639 21.661 2.34057 19.7252 2.33325 17.335V6.66825C2.34057 4.27805 4.27639 2.34222 6.66659 2.3349H17.3333C19.7235 2.34222 21.6593 4.27805 21.6666 6.66825V17.335ZM18.3333 7.00078C19.0697 7.00078 19.6666 6.40362 19.6666 5.66698C19.6666 4.93034 19.0697 4.33318 18.3333 4.33318C17.5969 4.33318 17 4.93034 17 5.66698C17 6.40362 17.5969 7.00078 18.3333 7.00078ZM12 5.99998C8.68629 5.99998 6 8.68628 6 12C6 15.3137 8.68629 18 12 18C15.3137 18 18 15.3137 18 12C18.0035 10.4076 17.3725 8.87942 16.2465 7.75343C15.1206 6.62743 13.5924 5.99643 12 5.99998ZM8.33325 12C8.33325 14.025 9.97488 15.6667 11.9999 15.6667C14.025 15.6667 15.6666 14.025 15.6666 12C15.6666 9.97488 14.025 8.33322 11.9999 8.33322C9.97488 8.33322 8.33325 9.97488 8.33325 12Z" fill="#E9E9EA"/>
</svg>
