<svg width="24" height="24" viewBox="0 0 24 24" fill="none" xmlns="http://www.w3.org/2000/svg">
<path d="M12.0039 0C6.99403 0 5.52883 0.00516967 5.24402 0.0288024C4.2159 0.114287 3.57615 0.276208 2.87917 0.623314C2.34204 0.890106 1.91843 1.19936 1.50035 1.63288C0.738959 2.42347 0.277507 3.3961 0.110461 4.55226C0.0292458 5.11354 0.00561946 5.22801 0.000820359 8.09496C-0.00102545 9.05061 0.000820359 10.3083 0.000820359 11.9953C0.000820359 17.0025 0.00635778 18.4666 0.0303533 18.7509C0.113415 19.7516 0.270308 20.3812 0.602553 21.0699C1.23751 22.3882 2.45021 23.3778 3.87886 23.7471C4.37354 23.8745 4.9199 23.9446 5.6213 23.9778C5.91848 23.9908 8.94745 24 11.9783 24C15.0091 24 18.0399 23.9963 18.3297 23.9815C19.1418 23.9433 19.6134 23.88 20.1349 23.7452C20.8433 23.5635 21.5035 23.2293 22.0693 22.7659C22.6352 22.3026 23.0932 21.7212 23.4112 21.0625C23.737 20.3905 23.9022 19.7369 23.9769 18.7884C23.9932 18.5816 24 15.2847 24 11.9922C24 8.69907 23.9926 5.40821 23.9764 5.20142C23.9007 4.23765 23.7355 3.5896 23.3992 2.90462C23.1232 2.34389 22.8168 1.92515 22.372 1.49699C21.5783 0.738524 20.6074 0.276947 19.4503 0.11004C18.8897 0.0289871 18.778 0.00498504 15.9096 0H12.0039Z" fill="url(#paint0_radial_505_210)"/>
<path d="M12.0039 0C6.99403 0 5.52883 0.00516967 5.24402 0.0288024C4.2159 0.114287 3.57615 0.276208 2.87917 0.623314C2.34204 0.890106 1.91843 1.19936 1.50035 1.63288C0.738959 2.42347 0.277507 3.3961 0.110461 4.55226C0.0292458 5.11354 0.00561946 5.22801 0.000820359 8.09496C-0.00102545 9.05061 0.000820359 10.3083 0.000820359 11.9953C0.000820359 17.0025 0.00635778 18.4666 0.0303533 18.7509C0.113415 19.7516 0.270308 20.3812 0.602553 21.0699C1.23751 22.3882 2.45021 23.3778 3.87886 23.7471C4.37354 23.8745 4.9199 23.9446 5.6213 23.9778C5.91848 23.9908 8.94745 24 11.9783 24C15.0091 24 18.0399 23.9963 18.3297 23.9815C19.1418 23.9433 19.6134 23.88 20.1349 23.7452C20.8433 23.5635 21.5035 23.2293 22.0693 22.7659C22.6352 22.3026 23.0932 21.7212 23.4112 21.0625C23.737 20.3905 23.9022 19.7369 23.9769 18.7884C23.9932 18.5816 24 15.2847 24 11.9922C24 8.69907 23.9926 5.40821 23.9764 5.20142C23.9007 4.23765 23.7355 3.5896 23.3992 2.90462C23.1232 2.34389 22.8168 1.92515 22.372 1.49699C21.5783 0.738524 20.6074 0.276947 19.4503 0.11004C18.8897 0.0289871 18.778 0.00498504 15.9096 0H12.0039Z" fill="url(#paint1_radial_505_210)"/>
<path d="M12.0039 0C6.99403 0 5.52883 0.00516967 5.24402 0.0288024C4.2159 0.114287 3.57615 0.276208 2.87917 0.623314C2.34204 0.890106 1.91843 1.19936 1.50035 1.63288C0.738959 2.42347 0.277507 3.3961 0.110461 4.55226C0.0292458 5.11354 0.00561946 5.22801 0.000820359 8.09496C-0.00102545 9.05061 0.000820359 10.3083 0.000820359 11.9953C0.000820359 17.0025 0.00635778 18.4666 0.0303533 18.7509C0.113415 19.7516 0.270308 20.3812 0.602553 21.0699C1.23751 22.3882 2.45021 23.3778 3.87886 23.7471C4.37354 23.8745 4.9199 23.9446 5.6213 23.9778C5.91848 23.9908 8.94745 24 11.9783 24C15.0091 24 18.0399 23.9963 18.3297 23.9815C19.1418 23.9433 19.6134 23.88 20.1349 23.7452C20.8433 23.5635 21.5035 23.2293 22.0693 22.7659C22.6352 22.3026 23.0932 21.7212 23.4112 21.0625C23.737 20.3905 23.9022 19.7369 23.9769 18.7884C23.9932 18.5816 24 15.2847 24 11.9922C24 8.69907 23.9926 5.40821 23.9764 5.20142C23.9007 4.23765 23.7355 3.5896 23.3992 2.90462C23.1232 2.34389 22.8168 1.92515 22.372 1.49699C21.5783 0.738524 20.6074 0.276947 19.4503 0.11004C18.8897 0.0289871 18.778 0.00498504 15.9096 0H12.0039Z" fill="url(#paint2_radial_505_210)"/>
<path d="M11.9984 3.13867C9.59217 3.13867 9.2902 3.1492 8.34515 3.19222C7.40194 3.23542 6.75812 3.38479 6.19478 3.60394C5.61206 3.8303 5.11775 4.13309 4.62529 4.62587C4.13246 5.11847 3.82975 5.61291 3.60271 6.19561C3.38306 6.75929 3.23355 7.40346 3.1911 8.34656C3.14901 9.29187 3.13794 9.59411 3.13794 12.001C3.13794 14.4078 3.14865 14.7089 3.19147 15.6543C3.23484 16.5977 3.38417 17.2417 3.60308 17.8052C3.82956 18.3881 4.13228 18.8825 4.62492 19.3751C5.1172 19.8681 5.61151 20.1716 6.19386 20.398C6.75757 20.6171 7.40157 20.7665 8.34459 20.8097C9.28965 20.8527 9.59144 20.8632 11.9974 20.8632C14.4038 20.8632 14.7049 20.8527 15.6499 20.8097C16.5931 20.7665 17.2377 20.6171 17.8014 20.398C18.3839 20.1716 18.8775 19.8681 19.3698 19.3751C19.8626 18.8825 20.1653 18.3881 20.3924 17.8054C20.6102 17.2417 20.7597 16.5975 20.804 15.6544C20.8464 14.7091 20.8575 14.4078 20.8575 12.001C20.8575 9.59411 20.8464 9.29205 20.804 8.34674C20.7597 7.40328 20.6102 6.75929 20.3924 6.19579C20.1653 5.61291 19.8626 5.11847 19.3698 4.62587C18.877 4.13291 18.3841 3.83012 17.8009 3.60394C17.236 3.38479 16.5918 3.23542 15.6486 3.19222C14.7036 3.1492 14.4027 3.13867 11.9958 3.13867H11.9984ZM11.2036 4.73573C11.4395 4.73536 11.7027 4.73573 11.9984 4.73573C14.364 4.73573 14.6443 4.74422 15.5785 4.78669C16.4423 4.8262 16.9112 4.97058 17.2235 5.09188C17.6369 5.25251 17.9317 5.44453 18.2416 5.75471C18.5517 6.06489 18.7437 6.3603 18.9046 6.77387C19.0259 7.0859 19.1704 7.55486 19.2098 8.41893C19.2522 9.35317 19.2614 9.63381 19.2614 11.9989C19.2614 14.3641 19.2522 14.6447 19.2098 15.5789C19.1703 16.443 19.0259 16.912 18.9046 17.224C18.7441 17.6376 18.5517 17.932 18.2416 18.242C17.9315 18.5522 17.6371 18.7442 17.2235 18.9049C16.9115 19.0267 16.4423 19.1707 15.5785 19.2102C14.6445 19.2527 14.364 19.2619 11.9984 19.2619C9.6326 19.2619 9.35222 19.2527 8.41824 19.2102C7.5544 19.1704 7.08557 19.026 6.77307 18.9047C6.35961 18.7441 6.06428 18.552 5.75419 18.2419C5.44409 17.9317 5.25213 17.637 5.09117 17.2232C4.9699 16.9112 4.82538 16.4423 4.78606 15.5782C4.74361 14.644 4.73512 14.3633 4.73512 11.9967C4.73512 9.63011 4.74361 9.35095 4.78606 8.41672C4.82556 7.55265 4.9699 7.08368 5.09117 6.77129C5.25176 6.35771 5.44409 6.0623 5.75419 5.75212C6.06428 5.44194 6.35961 5.24993 6.77307 5.08893C7.08538 4.96707 7.5544 4.82306 8.41824 4.78337C9.23556 4.74644 9.55231 4.73536 11.2036 4.73351V4.73573ZM16.7277 6.20724C16.5174 6.20724 16.3118 6.26962 16.137 6.38649C15.9621 6.50336 15.8259 6.66948 15.7454 6.86382C15.6649 7.05817 15.6439 7.27202 15.685 7.47832C15.726 7.68463 15.8273 7.87412 15.976 8.02283C16.1248 8.17155 16.3142 8.27281 16.5205 8.3138C16.7268 8.35479 16.9406 8.33368 17.1348 8.25313C17.3291 8.17258 17.4951 8.03622 17.6119 7.86128C17.7287 7.68634 17.791 7.4807 17.7909 7.27034C17.7909 6.68322 17.3147 6.20687 16.7277 6.20687V6.20724ZM11.9984 7.44981C9.48567 7.44981 7.44845 9.48758 7.44845 12.001C7.44845 14.5143 9.48567 16.5512 11.9984 16.5512C14.5111 16.5512 16.5477 14.5143 16.5477 12.001C16.5477 9.48758 14.5109 7.44981 11.9982 7.44981H11.9984ZM11.9984 9.04686C13.6293 9.04686 14.9517 10.3694 14.9517 12.001C14.9517 13.6324 13.6293 14.9551 11.9984 14.9551C10.3672 14.9551 9.04508 13.6324 9.04508 12.001C9.04508 10.3694 10.3672 9.04686 11.9984 9.04686V9.04686Z" fill="white"/>
<defs>
<radialGradient id="paint0_radial_505_210" cx="0" cy="0" r="1" gradientUnits="userSpaceOnUse" gradientTransform="translate(6.37503 25.8485) rotate(-90) scale(23.7858 22.1226)">
<stop stop-color="#FFDD55"/>
<stop offset="0.1" stop-color="#FFDD55"/>
<stop offset="0.5" stop-color="#FF543E"/>
<stop offset="1" stop-color="#C837AB"/>
</radialGradient>
<radialGradient id="paint1_radial_505_210" cx="0" cy="0" r="1" gradientUnits="userSpaceOnUse" gradientTransform="translate(-4.02013 1.72892) rotate(78.6806) scale(10.6323 43.827)">
<stop stop-color="#3771C8"/>
<stop offset="0.128" stop-color="#3771C8"/>
<stop offset="1" stop-color="#6600FF" stop-opacity="0"/>
</radialGradient>
<radialGradient id="paint2_radial_505_210" cx="0" cy="0" r="1" gradientUnits="userSpaceOnUse" gradientTransform="translate(-4.02013 1.72892) rotate(78.6806) scale(10.6323 43.827)">
<stop stop-color="#3771C8"/>
<stop offset="0.128" stop-color="#3771C8"/>
<stop offset="1" stop-color="#6600FF" stop-opacity="0"/>
</radialGradient>
</defs>
</svg>
