<svg width="24" height="24" viewBox="0 0 24 24" fill="none" xmlns="http://www.w3.org/2000/svg">
<g clip-path="url(#clip0_505_193)">
<path d="M20.7817 10.1103C21.0943 11.0553 21.1925 11.8326 21.1925 12.8791C21.1925 18.2396 16.7584 22.6016 11.308 22.6016C5.85697 22.6016 1.42214 18.2396 1.42214 12.8791C1.42214 7.5179 5.85697 3.15683 11.3077 3.15683C11.6241 3.15683 11.6962 3.167 12.0058 3.19625C11.8171 2.75184 11.67 2.27374 11.5679 1.77021C11.4024 1.76354 11.4744 1.75781 11.3077 1.75781C5.07253 1.7575 0 6.74671 0 12.8791C0 19.0117 5.07253 24 11.3077 24C17.5425 24 22.6147 19.0117 22.6147 12.8791C22.6147 11.9836 22.5429 11.2791 22.3387 10.4444C21.7485 10.3353 21.2543 10.2635 20.7817 10.1103Z" fill="#E61900"/>
<path d="M19.8506 10.4061C18.1033 10.1518 17.0183 9.4725 16.2568 8.5341C16.2316 8.57606 15.3505 9.96077 15.3505 9.96077L14.6889 8.56621C14.5709 8.14564 14.3947 7.43581 14.4106 6.75045C13.534 6.56607 12.1833 6.15981 11.1138 4.47375L10.8326 4.1228C6.87806 4.1228 2.40283 8.08111 2.40283 12.8783C2.40283 17.7147 6.39001 21.6367 11.308 21.6367C16.2258 21.6367 20.2136 17.7147 20.2136 12.8783C20.2133 11.9123 20.0668 11.1812 19.8506 10.4061ZM5.51991 12.3888C4.88124 12.2772 4.13946 12.1456 3.79556 12.1094C3.93746 11.2317 4.08807 10.5231 4.41905 9.83076C5.03477 10.1054 5.49923 10.4039 5.96724 10.6287C5.68993 11.3163 5.63336 11.5356 5.51991 12.3888ZM6.49441 9.67944C5.29884 8.87106 6.08845 9.46296 5.05998 8.70512C6.44948 6.88841 7.93271 5.94047 10.4651 5.50974C10.5899 6.65858 10.5181 6.01677 10.648 7.20216C8.71328 7.5032 7.61144 8.16662 6.49441 9.67944Z" fill="#E61900"/>
<path fill-rule="evenodd" clip-rule="evenodd" d="M20.4359 7.19025C21.7255 6.95756 22.744 6.51411 24 5.63484C22.8594 5.60305 21.3096 5.72321 19.9918 5.62403C19.3053 5.57221 18.6815 5.46 18.2109 5.23557C19.176 3.57907 19.3567 2.9201 19.5332 1.91113C19.0286 2.65943 18.6159 3.03644 18.0264 3.56032C17.3857 4.04032 16.9759 4.3137 16.6627 4.28986C16.6369 4.28796 16.6113 4.28382 16.5858 4.27619C15.7558 3.22113 15.7044 1.70228 15.706 0C15.2338 0.901523 15.0777 2.16194 14.8685 2.99289C13.9584 2.45249 13.3123 1.89174 12.3504 0.336958C12.3711 1.82466 12.9254 3.50119 13.79 4.33119C13.5918 4.44563 13.3077 4.46756 12.9348 4.43927C12.224 4.38586 12.2541 4.38364 11.9111 4.3207C12.9312 5.74578 13.682 6.01344 14.9584 6.21371L14.9529 6.21911L15.1549 6.24677C15.2047 6.24581 15.2538 6.24518 15.302 6.24581C15.0434 6.99221 15.2244 7.68552 15.4254 8.40298C15.6902 7.99069 15.8802 7.55772 16.3376 7.24016C17.0124 8.44208 17.964 9.16591 19.753 9.62493C18.8247 9.0521 18.4139 8.41125 18.2332 7.8327C19.1182 8.49453 20.5642 9.39351 23.2304 9.72475C22.5168 9.18307 20.8849 7.95222 20.4359 7.19025Z" fill="#7AB800"/>
</g>
<defs>
<clipPath id="clip0_505_193">
<rect width="24" height="24" fill="white"/>
</clipPath>
</defs>
</svg>
