<svg width="24" height="24" viewBox="0 0 24 24" fill="none" xmlns="http://www.w3.org/2000/svg">
<path d="M20.7817 10.1104C21.0943 11.0554 21.1925 11.8327 21.1925 12.8792C21.1925 18.2397 16.7584 22.6017 11.308 22.6017C5.85697 22.6017 1.42214 18.2397 1.42214 12.8792C1.42214 7.51802 5.85697 3.15695 11.3077 3.15695C11.6241 3.15695 11.6962 3.16712 12.0058 3.19637C11.8171 2.75196 11.67 2.27386 11.5679 1.77033C11.4024 1.76366 11.4744 1.75793 11.3077 1.75793C5.07253 1.75762 0 6.74683 0 12.8792C0 19.0118 5.07253 24.0001 11.3077 24.0001C17.5425 24.0001 22.6147 19.0118 22.6147 12.8792C22.6147 11.9837 22.5429 11.2792 22.3387 10.4445C21.7485 10.3354 21.2543 10.2636 20.7817 10.1104Z" fill="#E9E9EA"/>
<path d="M19.8506 10.4062C18.1033 10.1519 17.0183 9.47262 16.2568 8.53422C16.2316 8.57618 15.3505 9.96089 15.3505 9.96089L14.6889 8.56633C14.5709 8.14576 14.3947 7.43593 14.4106 6.75057C13.534 6.56619 12.1833 6.15993 11.1138 4.47387L10.8326 4.12292C6.87806 4.12292 2.40283 8.08123 2.40283 12.8784C2.40283 17.7148 6.39001 21.6368 11.308 21.6368C16.2258 21.6368 20.2136 17.7148 20.2136 12.8784C20.2133 11.9124 20.0668 11.1813 19.8506 10.4062ZM5.51991 12.3889C4.88124 12.2773 4.13946 12.1457 3.79556 12.1095C3.93746 11.2318 4.08807 10.5232 4.41905 9.83088C5.03477 10.1055 5.49923 10.404 5.96724 10.6288C5.68993 11.3164 5.63336 11.5357 5.51991 12.3889ZM6.49441 9.67956C5.29884 8.87118 6.08845 9.46308 5.05998 8.70524C6.44948 6.88853 7.93271 5.94059 10.4651 5.50986C10.5899 6.6587 10.5181 6.01689 10.648 7.20228C8.71328 7.50332 7.61144 8.16674 6.49441 9.67956Z" fill="#E9E9EA"/>
<path fill-rule="evenodd" clip-rule="evenodd" d="M20.4359 7.19025C21.7255 6.95756 22.744 6.51411 24 5.63484C22.8594 5.60305 21.3096 5.72321 19.9918 5.62403C19.3053 5.57221 18.6815 5.46 18.2109 5.23557C19.176 3.57907 19.3567 2.9201 19.5332 1.91113C19.0286 2.65943 18.6159 3.03644 18.0264 3.56032C17.3857 4.04032 16.9759 4.3137 16.6627 4.28986C16.6369 4.28796 16.6113 4.28382 16.5858 4.27619C15.7558 3.22113 15.7044 1.70228 15.706 0C15.2338 0.901523 15.0777 2.16194 14.8685 2.99289C13.9584 2.45249 13.3123 1.89174 12.3504 0.336958C12.3711 1.82466 12.9254 3.50119 13.79 4.33119C13.5918 4.44563 13.3077 4.46756 12.9348 4.43927C12.224 4.38586 12.2541 4.38364 11.9111 4.3207C12.9312 5.74578 13.682 6.01344 14.9584 6.21371L14.9529 6.21911L15.1549 6.24677C15.2047 6.24581 15.2538 6.24518 15.302 6.24581C15.0434 6.99221 15.2244 7.68552 15.4254 8.40298C15.6902 7.99069 15.8802 7.55772 16.3376 7.24016C17.0124 8.44208 17.964 9.16591 19.753 9.62493C18.8247 9.0521 18.4139 8.41125 18.2332 7.8327C19.1182 8.49453 20.5642 9.39351 23.2304 9.72475C22.5168 9.18307 20.8849 7.95222 20.4359 7.19025Z" fill="#E9E9EA"/>
</svg>
